PathFileType	4	(X/Y/Z)	C:/Users/beibeiliu/ov580/test_trc/User1\sequence.1_training_dense_left.trc
DataRate	CameraRate	NumFrames	NumMarkers	Units	OrigDataRate	OrigDataStartFrame	OrigNumFrames
120	120	14	19	mm	120	111	294
Frame#	Time	ThumbCMC			ThumbMCP			ThumbIP			ThumbTip			IndexMCP			IndexPIP			IndexTip			MiddleMCP			MiddlePIP			MiddleTip			RingMCP			RingPIP			RingTip			PinkyMCP			PinkyPIP			PinkyTip			BackHand1			BackHand2			BackHand3	
		X0	Y0	Z0	X1	Y1	Z1	X2	Y2	Z2	X3	Y3	Z3	X4	Y4	Z4	X5	Y5	Z5	X6	Y6	Z6	X7	Y7	Z7	X8	Y8	Z8	X9	Y9	Z9	X10	Y10	Z10	X11	Y11	Z11	X12	Y12	Z12	X13	Y13	Z13	X14	Y14	Z14	X15	Y15	Z15	X16	Y16	Z16	X17	Y17	Z17	X18	Y18	Z18	
110	0.916667	-219.461	84.3135	49.0629	-207.577	96.8739	15.2919	-203.059	97.5645	-9.89115	-195.354	96.7296	-32.8734	-245.4	39.9695	-21.598	-242.973	26.4634	-49.8662	-231.845	22.6652	-73.3147	-239.259	14.1774	-25.1248	-232.142	4.80455	-56.4054	-208.708	6.71216	-84.6538	-218.314	-0.956462	-17.6473	-203.141	-5.04867	-45.5661	-177.463	1.62277	-60.4545	-194.33	-9.06406	0.267511	-180.437	-7.34349	-19.9781	-165.415	3.33817	-38.7109	-224.583	10.7281	43.5252	-224.854	19.2686	76.6158	-240.917	47.9396	49.6865	
111	0.925	-219.564	85.3453	47.3925	-205.975	97.3164	20.6687	-203.787	100.992	-7.18432	-195.793	104.138	-31.9923	-248.638	44.7207	-22.2147	-248.81	31.2866	-48.2391	-233.29	25.4688	-76.2972	-245.26	18.4924	-25.6059	-238.275	7.90443	-54.2765	-215.329	6.58357	-83.4659	-222.391	-0.305979	-17.7295	-209.688	-5.44951	-46.2555	-185.466	1.72705	-62.1204	-199.977	-10.6158	3.29677	-187.486	-11.6374	-20.0509	-168.429	-0.509451	-44.1945	-229.767	14.8808	37.495	-227.843	24.0527	74.228	-239.888	48.8113	50.5065	
112	0.933333	-217.104	92.5336	48.9171	-203.914	102.002	17.9418	-201.066	104.804	-7.57927	-192.742	108.787	-33.2982	-250.752	54.1489	-21.9581	-252.773	43.1785	-52.5178	-236.704	34.3084	-79.3342	-247.374	23.1567	-21.6438	-246.996	18.6892	-54.3219	-226.757	14.134	-82.1114	-230.887	5.94281	-19.6032	-220.747	0.348457	-47.3484	-197.524	5.38136	-65.2718	-207.686	-6.46612	-2.23835	-198.601	-7.18321	-21.229	-179.622	1.37147	-44.8446	-232.35	19.8622	41.5693	-230.775	28.5833	71.6115	-242.87	55.7523	48.2684	
113	0.941667	-211.96	99.2244	46.4241	-197.203	107.449	21.8841	-193.382	113.692	-6.18695	-186.01	115.696	-32.553	-249.931	68.357	-21.6153	-253.59	57.252	-53.5528	-240.333	49.36	-79.7037	-254.495	35.5568	-26.456	-254.419	33.1486	-54.8945	-232.351	23.6503	-86.6058	-242.319	18.8623	-20.727	-235.003	13.2906	-48.3074	-210.412	10.176	-70.6119	-220.459	0.634369	0.118206	-210.375	-5.79146	-26.0705	-193.16	-0.186048	-49.2336	-239.833	33.5503	37.4796	-234.484	34.4905	73.257	-240.638	68.6118	50.5892	
114	0.95	-204.818	99.1417	51.8243	-190.916	108.307	18.6864	-187.182	114.295	-7.28624	-178.49	114.871	-28.5715	-248.571	79.343	-21.6913	-251.401	70.2587	-52.4842	-241.123	57.7857	-75.2756	-255.832	52.7277	-24.2246	-255.627	42.0609	-58.3936	-242.824	36.7352	-83.4546	-249.628	26.4564	-19.9949	-245.347	21.9697	-46.6311	-226.179	17.3918	-69.8643	-230.97	9.70938	1.71065	-226.33	2.50971	-24.3359	-210.523	0.200891	-48.5981	-239.893	39.1366	41.728	-236.775	40.1087	70.2074	-239.323	73.4408	51.9973	
115	0.958333	-199.681	99.5738	50.1939	-182.684	107.079	25.0313	-177.146	116.001	-5.04951	-170.061	116.446	-26.807	-243.534	88.7534	-20.3852	-248.163	80.6192	-52.8171	-239.141	71.2886	-75.3785	-256.88	59.2124	-23.5739	-257.637	50.9689	-57.4612	-245.265	45.8878	-83.0144	-251.861	40.5203	-15.3977	-250.932	32.167	-51.2176	-233.456	26.459	-71.5603	-239.605	13.7772	-1.14708	-235.919	4.88101	-23.5512	-222.475	7.42048	-51.2528	-242.861	45.5663	39.2308	-238.298	49.1861	71.4895	-234.275	83.9491	50.0087	
116	0.966667	-192.85	100.84	54.0864	-176.656	108.745	21.9011	-169.067	115.275	-0.0949259	-163.779	114.476	-26.2567	-237.919	95.0231	-19.4493	-244.662	88.6964	-47.9076	-235.52	79.1449	-76.4215	-255.678	70.0905	-21.2711	-258.872	67.0581	-56.0602	-247.06	52.8853	-84.274	-255.081	48.1661	-14.9964	-255.821	43.8236	-49.7031	-241.926	33.0156	-71.9353	-245.382	23.8903	-1.95815	-246.438	13.1829	-23.1428	-235.678	10.667	-51.1885	-245.339	57.0345	39.2378	-241.461	52.696	72.3298	-231.567	88.9833	53.5182	
117	0.975	-185.08	100.983	53.7758	-166.74	109.258	23.3811	-161.714	112.437	1.03502	-154.665	112.433	-23.3985	-233.487	101.688	-21.9394	-237.275	99.7232	-51.5845	-230.37	86.5693	-78.1352	-253.078	80.5165	-21.5548	-257.715	75.0608	-53.7284	-248.568	62.6272	-82.8233	-254.819	60.7383	-17.4102	-258.78	56.0259	-46.0782	-246.197	42.4619	-73.1653	-250.469	30.5877	1.22278	-253.136	23.0392	-24.9332	-245.129	21.307	-53.5821	-245.273	63.1337	36.5775	-236.476	62.4542	73.7144	-228.107	90.5983	50.5951	
118	0.983333	-181.432	96.2591	51.3875	-161.316	102.425	22.6892	-155.95	105.82	-1.20246	-142.134	108.012	-24.2115	-223.762	109.928	-22.0572	-228.874	107.241	-53.0862	-224.597	93.613	-77.5684	-246.634	91.2358	-23.2766	-251.557	89.2943	-54.7908	-245.365	73.5972	-86.4415	-257.584	67.0806	-20.5027	-261.14	63.5207	-47.8134	-250.335	51.1484	-76.5873	-254.373	39.9521	-1.08507	-259.947	33.7606	-24.3103	-252.757	32.2674	-54.014	-245.327	68.3413	38.8801	-238.441	65.9329	72.4979	-218.769	96.1329	52.6697	
119	0.991667	-176.571	92.9364	50.8732	-153.757	97.7444	24.4679	-145.841	101.32	-1.0643	-136.21	98.8417	-23.9481	-212.45	112.902	-20.1697	-218.982	112.785	-50.6069	-216.054	98.9181	-79.7443	-243.139	97.645	-25.4957	-246.607	96.2477	-59.788	-241.195	82.3771	-90.8363	-254.66	78.466	-19.9819	-257.287	77.3253	-50.5784	-252.229	62.8403	-75.0236	-256.935	50.0967	-3.7355	-263.239	43.5555	-27.1505	-255.405	41.6325	-55.8978	-244.659	76.4547	34.4068	-239.412	70.8992	68.7941	-217.016	97.0368	52.4969	
120	1	-169.104	89.1779	53.9033	-151.71	86.3376	28.6446	-141.397	89.6706	1.54284	-130.521	88.0921	-17.6535	-206.376	113.465	-23.5936	-210.213	112.719	-50.4947	-207.071	102.674	-78.7637	-235.14	101.333	-23.0798	-238.288	102.579	-58.8494	-236.874	88.8606	-87.1244	-247.392	85.9869	-16.4	-254.097	85.5611	-47.7806	-251.472	70.5967	-77.929	-257.115	59.5493	-6.24533	-263.604	55.3982	-30.5693	-263.053	51.4026	-52.7643	-240.682	79.7036	37.9865	-236.734	74.6038	69.2034	-207.864	100.391	47.7902	
121	1.00833	-164.366	83.3062	53.6913	-146.372	77.4235	31.0584	-135.453	80.8471	4.33608	-124.259	78.4484	-21.1512	-198.645	110.602	-23.2595	-201.24	111.937	-51.0583	-200.693	97.8964	-81.7508	-228.284	105.998	-28.1	-228.533	108.358	-56.0011	-232.63	94.146	-87.1159	-246.866	88.7899	-18.0359	-253.114	89.8763	-49.3138	-250.476	78.5739	-76.3971	-258.247	64.6979	-1.96584	-267.495	62.6253	-26.0571	-266.689	57.7284	-52.7855	-235.59	84.7264	33.947	-234.34	78.0833	70.6051	-203.766	99.0657	50.7444	
122	1.01667	-166.712	75.5688	55.8914	-145.578	71.6674	29.9265	-129.948	72.7902	3.87934	-121.788	68.4641	-18.5379	-190.787	109.847	-24.6255	-192.423	110.664	-50.0577	-191.069	100.701	-77.5469	-221.648	107.723	-26.7213	-222.396	109.383	-58.193	-222.25	97.2247	-90.8559	-242.858	93.6765	-21.1761	-248.153	95.4465	-51.3115	-247.422	84.3831	-75.7034	-260.111	70.6243	-6.38268	-266.032	69.7122	-26.1373	-263.562	65.9536	-54.4013	-235.445	87.0751	32.4878	-232.854	83.2035	69.8574	-197.698	97.029	50.2659	
123	1.025	-161.568	72.4178	53.7836	-142.908	65.0646	28.4099	-132.462	63.8091	4.15145	-120.241	56.2854	-15.2107	-181.761	106.207	-21.8962	-186.241	108.431	-54.2049	-184.125	95.5497	-82.3106	-214.11	107.93	-27.5646	-219.063	108.366	-59.3733	-216.424	97.8585	-90.2647	-234.546	96.2626	-18.534	-241.866	98.7778	-51.8445	-240.488	88.3001	-79.417	-255.007	74.2935	-3.50234	-263.422	74.6024	-28.6926	-268.589	71.6507	-53.1401	-232.265	87.4242	36.5361	-228.486	85.027	66.4932	-198.555	94.3617	51.9657	
